<?xml version="1.0"?>
<svg xmlns="http://www.w3.org/2000/svg" width="290" height="81" viewBox="0 0 290 81" fill="none">
  <path d="M0.149414 75.8776L6.9646 58.4306H9.52029L16.3355 75.8776H13.7798L11.863 70.6488H4.51539L2.54538 75.8776H0.149414ZM8.1892 60.5114L5.2608 68.6213H11.1708L8.1892 60.5114Z" fill="#ED6E57"/>
  <path d="M28.4223 67.2875H26.2926C25.9731 65.6335 24.9082 64.7798 23.1512 64.7798C20.5423 64.7798 19.2112 66.4338 19.2112 69.6885C19.2112 70.969 19.4774 72.0361 20.0631 72.8364C20.702 73.7968 21.6604 74.277 22.885 74.277C24.9082 74.277 26.0796 73.2632 26.3458 71.1824H28.4756C28.2626 72.7297 27.6769 73.9568 26.7185 74.8105C25.7601 75.6642 24.4823 76.091 22.9382 76.091C21.0747 76.091 19.5839 75.5041 18.5722 74.277C17.5606 73.1032 17.0814 71.5559 17.0814 69.6351C17.0814 67.661 17.5606 66.0603 18.5722 64.8332C19.6371 63.5527 21.1279 62.859 23.0447 62.859C24.5355 62.859 25.7601 63.2325 26.7185 63.9261C27.6769 64.7265 28.2626 65.8469 28.4223 67.2875Z" fill="#ED6E57"/>
  <path d="M41.4666 67.2875H39.3369C39.0174 65.6335 37.9526 64.7798 36.1955 64.7798C33.5866 64.7798 32.2555 66.4338 32.2555 69.6885C32.2555 70.969 32.5217 72.0361 33.1074 72.8364C33.7463 73.7968 34.7047 74.277 35.9293 74.277C37.9526 74.277 39.1239 73.2632 39.3901 71.1824H41.5199C41.3069 72.7297 40.7212 73.9568 39.7628 74.8105C38.8045 75.6642 37.5266 76.091 35.9825 76.091C34.119 76.091 32.6282 75.5041 31.6166 74.277C30.6049 73.1032 30.1257 71.5559 30.1257 69.6351C30.1257 67.661 30.6049 66.0603 31.6166 64.8332C32.6814 63.5527 34.1723 62.859 36.089 62.859C37.5799 62.859 38.8045 63.2325 39.7628 63.9261C40.7745 64.7265 41.3602 65.8469 41.4666 67.2875Z" fill="#ED6E57"/>
  <path d="M55.0436 74.1703V75.7709C54.6709 75.9843 54.1917 76.091 53.5528 76.091C52.3814 76.091 51.7957 75.4508 51.7957 74.1169C50.6776 75.3974 49.1868 76.091 47.3765 76.091C46.1519 76.091 45.1403 75.8243 44.4481 75.2374C43.6495 74.5971 43.2235 73.6901 43.2235 72.5163C43.2235 71.2357 43.6495 70.2754 44.5546 69.6351C45.1403 69.2083 46.1519 68.8881 47.483 68.6214C48.4946 68.4613 49.453 68.3012 50.4646 68.0878C51.3165 67.8744 51.7425 67.3942 51.7425 66.7539C51.7425 65.3667 50.7841 64.6731 48.9206 64.6731C46.8973 64.6731 45.8324 65.4734 45.7792 67.0741H43.7027C43.7559 65.6335 44.3416 64.513 45.3533 63.7661C46.2584 63.1258 47.483 62.859 49.0271 62.859C52.1684 62.859 53.7657 64.0328 53.7657 66.3271V72.8364C53.7657 73.3699 53.7657 73.7434 53.819 73.9035C53.9255 74.1169 54.0852 74.2236 54.4047 74.2236C54.6176 74.3303 54.8306 74.277 55.0436 74.1703ZM51.6892 71.4492V69.315C51.3698 69.5817 50.8373 69.7418 50.0387 69.9019C49.3465 70.0086 48.6544 70.1153 47.9622 70.1686C46.2584 70.4354 45.4065 71.2357 45.4065 72.4629C45.4065 73.6901 46.2052 74.3303 47.8557 74.3303C49.0803 74.3303 50.0919 74.0102 50.7841 73.3166C51.3698 72.783 51.6892 72.1428 51.6892 71.4492Z" fill="#ED6E57"/>
  <path d="M68.2478 58.4301V75.8771H66.1713V74.1698H66.118C65.4791 75.5036 64.148 76.1972 62.0715 76.1972C60.208 76.1972 58.7704 75.557 57.7055 74.2231C56.7471 72.9959 56.2679 71.4487 56.2679 69.5812C56.2679 67.7138 56.7471 66.1665 57.7055 64.9394C58.7172 63.6589 60.1547 62.9652 62.0183 62.9652C62.7637 62.9652 63.5091 63.1253 64.2012 63.3921C65.0531 63.7122 65.6921 64.2458 66.118 64.9394H66.1713V58.4301H68.2478ZM58.5042 69.6346C58.5042 70.9151 58.8236 71.9822 59.4626 72.8359C60.1547 73.7963 61.1664 74.2765 62.391 74.2765C63.6688 74.2765 64.6804 73.7963 65.3726 72.7825C65.9583 71.9289 66.2777 70.8084 66.2777 69.5279C66.2777 68.1407 65.9583 67.0736 65.3726 66.2199C64.6804 65.2595 63.6688 64.7793 62.3377 64.7793C61.0066 64.7793 60.0482 65.2595 59.4093 66.2732C58.7704 67.1269 58.5042 68.2474 58.5042 69.6346Z" fill="#ED6E57"/>
  <path d="M80.1215 71.8224H82.1448C81.8786 73.2096 81.2397 74.2767 80.3345 75.0237C79.3761 75.7706 78.2048 76.1441 76.7672 76.1441C74.7972 76.1441 73.3064 75.5039 72.2415 74.2767C71.2299 73.1029 70.7507 71.5023 70.6974 69.5281C70.6442 67.6607 71.2299 66.0601 72.348 64.8329C73.4661 63.6057 74.9037 62.9655 76.6075 62.9655C78.6307 62.9655 80.1748 63.7658 81.1864 65.4198C82.0383 66.7537 82.411 68.3543 82.3045 70.1684H72.8804C72.8272 71.3422 73.1466 72.3026 73.7856 73.0495C74.4777 73.9032 75.4894 74.2767 76.8204 74.2767C78.684 74.3301 79.7488 73.4764 80.1215 71.8224ZM72.9337 68.3543H80.1748C80.1215 67.3406 79.7488 66.4869 79.0567 65.7933C78.3645 65.0997 77.5126 64.7796 76.501 64.7796C75.4361 64.7796 74.6375 65.0997 73.9985 65.7933C73.3596 66.4869 73.0401 67.3406 72.9337 68.3543Z" fill="#ED6E57"/>
  <path d="M84.5406 75.8774V63.2323H86.5107V65.0997H86.5639C87.5223 63.6591 88.8534 62.9655 90.6104 62.9655C92.4207 62.9655 93.5921 63.6591 94.0713 65.0997C94.9764 63.6591 96.3075 62.9655 98.0113 62.9655C100.78 62.9655 102.218 64.1927 102.218 66.647V75.9307H100.141V67.6607C100.141 65.7933 99.3424 64.8329 97.6918 64.8329C96.6802 64.8329 95.8815 65.0997 95.2959 65.6866C94.7102 66.2735 94.3907 67.0738 94.3907 68.0342V75.8774H92.3142V67.6074C92.3142 65.7399 91.5156 64.7796 89.9715 64.7796C88.9066 64.7796 88.0015 65.2064 87.3626 66.0067C86.8834 66.647 86.6172 67.3406 86.6172 67.9808V75.824H84.5406V75.8774Z" fill="#ED6E57"/>
  <path d="M107.489 58.4301V60.9911H105.412V58.4301H107.489ZM105.412 75.8771V63.232H107.489V75.8771H105.412Z" fill="#ED6E57"/>
  <path d="M121.864 74.1703V75.7709C121.492 75.9843 121.012 76.091 120.373 76.091C119.202 76.091 118.616 75.4508 118.616 74.1169C117.498 75.3974 116.007 76.091 114.197 76.091C112.973 76.091 111.961 75.8243 111.269 75.2374C110.47 74.5971 110.044 73.6901 110.044 72.5163C110.044 71.2357 110.47 70.2754 111.375 69.6351C111.961 69.2083 112.973 68.8881 114.304 68.6214C115.315 68.4613 116.274 68.3012 117.285 68.0878C118.137 67.8744 118.563 67.3942 118.563 66.7539C118.563 65.3667 117.605 64.6731 115.741 64.6731C113.718 64.6731 112.653 65.4734 112.6 67.0741H110.523C110.577 65.6335 111.162 64.513 112.174 63.7661C113.079 63.1258 114.304 62.859 115.848 62.859C118.989 62.859 120.586 64.0328 120.586 66.3271V72.8364C120.586 73.3699 120.586 73.7434 120.64 73.9035C120.746 74.1169 120.906 74.2236 121.225 74.2236C121.438 74.3303 121.651 74.277 121.864 74.1703ZM118.51 71.4492V69.315C118.19 69.5817 117.658 69.7418 116.859 69.9019C116.167 70.0086 115.475 70.1153 114.783 70.1686C113.079 70.4354 112.227 71.2357 112.227 72.4629C112.227 73.6901 113.026 74.3303 114.676 74.3303C115.901 74.3303 116.913 74.0102 117.605 73.3166C118.19 72.783 118.51 72.1428 118.51 71.4492Z" fill="#ED6E57"/>
  <path d="M130.916 75.8771V58.4301H136.879C142.47 58.4301 145.239 61.2045 145.239 66.7534C145.239 72.8359 142.47 75.8771 136.879 75.8771H130.916ZM133.259 60.3509V73.903H137.092C138.477 73.903 139.648 73.5829 140.606 72.8892C142.15 71.7688 142.949 69.7947 142.949 67.0736C142.949 62.6451 141.032 60.4042 137.146 60.4042H133.259V60.3509Z" fill="#ED6E57"/>
  <path d="M149.924 58.4301V60.9911H147.847V58.4301H149.924ZM147.847 75.8771V63.232H149.924V75.8771H147.847Z" fill="#ED6E57"/>
  <path d="M164.033 63.2331V74.8111C164.033 78.9728 162.063 81.0003 158.176 81.0003C156.792 81.0003 155.674 80.7335 154.715 80.1466C153.597 79.5063 153.012 78.5459 152.958 77.2654H155.035C155.088 77.959 155.461 78.4926 156.206 78.8661C156.792 79.1862 157.484 79.3463 158.283 79.3463C160.785 79.3463 162.063 77.7456 162.063 74.5443V73.6907H162.01C161.69 74.4376 161.158 75.0245 160.359 75.398C159.667 75.7715 158.922 75.9849 158.07 75.9849C156.259 75.9849 154.875 75.3447 153.863 74.0641C152.905 72.8903 152.426 71.3964 152.426 69.5823C152.426 67.8216 152.852 66.3277 153.704 65.1539C154.769 63.66 156.259 62.913 158.283 62.913C160.04 62.913 161.264 63.6066 162.063 64.9938V63.1798H164.033V63.2331ZM158.229 74.1708C159.507 74.1708 160.466 73.6373 161.158 72.6236C161.743 71.7699 162.01 70.6494 162.01 69.3156C162.01 68.0884 161.743 67.0213 161.211 66.221C160.572 65.2606 159.614 64.7804 158.442 64.7804C157.165 64.7804 156.259 65.2606 155.567 66.1676C154.982 66.968 154.662 68.035 154.662 69.3689C154.662 70.7028 154.928 71.7699 155.408 72.6236C156.046 73.6373 156.952 74.1708 158.229 74.1708Z" fill="#ED6E57"/>
  <path d="M169.358 58.4301V60.9911H167.281V58.4301H169.358ZM167.281 75.8771V63.232H169.358V75.8771H167.281Z" fill="#ED6E57"/>
  <path d="M175.427 59.4442V63.2324H177.93V65.0464H175.427V72.8896C175.427 73.4231 175.587 73.7432 175.853 73.9033C176.013 74.01 176.386 74.01 176.971 74.01H177.93V75.8241H176.332C175.214 75.8241 174.469 75.664 174.043 75.2905C173.564 74.917 173.351 74.1701 173.351 73.0496V64.9931H171.221V63.179H173.351V59.3908H175.427V59.4442Z" fill="#ED6E57"/>
  <path d="M191.401 74.1703V75.7709C191.028 75.9843 190.549 76.091 189.91 76.091C188.738 76.091 188.153 75.4508 188.153 74.1169C187.035 75.3974 185.544 76.091 183.734 76.091C182.509 76.091 181.497 75.8243 180.805 75.2374C180.007 74.5971 179.581 73.6901 179.581 72.5163C179.581 71.2357 180.007 70.2754 180.912 69.6351C181.497 69.2083 182.509 68.8881 183.84 68.6214C184.852 68.4613 185.81 68.3012 186.822 68.0878C187.674 67.8744 188.1 67.3942 188.1 66.7539C188.1 65.3667 187.141 64.6731 185.278 64.6731C183.254 64.6731 182.189 65.4734 182.136 67.0741H180.06C180.113 65.6335 180.699 64.513 181.71 63.7661C182.615 63.1258 183.84 62.859 185.384 62.859C188.525 62.859 190.123 64.0328 190.123 66.3271V72.8364C190.123 73.3699 190.123 73.7434 190.176 73.9035C190.282 74.1169 190.442 74.2236 190.762 74.2236C190.975 74.3303 191.188 74.277 191.401 74.1703ZM188.046 71.4492V69.315C187.727 69.5817 187.194 69.7418 186.396 69.9019C185.704 70.0086 185.011 70.1153 184.319 70.1686C182.615 70.4354 181.764 71.2357 181.764 72.4629C181.764 73.6901 182.562 74.3303 184.213 74.3303C185.437 74.3303 186.449 74.0102 187.141 73.3166C187.727 72.783 188.046 72.1428 188.046 71.4492Z" fill="#ED6E57"/>
  <path d="M193.424 75.8771V58.4301H195.5V75.8771H193.424Z" fill="#ED6E57"/>
  <path d="M207.427 71.8224H209.45C209.184 73.2096 208.545 74.2767 207.64 75.0237C206.681 75.7706 205.51 76.1441 204.072 76.1441C202.102 76.1441 200.612 75.5039 199.547 74.2767C198.535 73.1029 198.056 71.5023 198.003 69.5281C197.949 67.6607 198.535 66.0601 199.653 64.8329C200.771 63.6057 202.209 62.9655 203.913 62.9655C205.936 62.9655 207.48 63.7658 208.492 65.4198C209.343 66.7537 209.716 68.3543 209.61 70.1684H200.186C200.132 71.3422 200.452 72.3026 201.091 73.0495C201.783 73.9032 202.795 74.2767 204.126 74.2767C205.989 74.3301 207.054 73.4764 207.427 71.8224ZM200.239 68.3543H207.48C207.427 67.3406 207.054 66.4869 206.362 65.7933C205.67 65.0997 204.818 64.7796 203.806 64.7796C202.741 64.7796 201.943 65.0997 201.304 65.7933C200.665 66.4869 200.345 67.3406 200.239 68.3543Z" fill="#ED6E57"/>
  <path d="M218.927 75.8771V58.4301H221.27V73.903H230.481V75.8771H218.927Z" fill="#ED6E57"/>
  <path d="M234.368 58.4301V60.9911H232.292V58.4301H234.368ZM232.292 75.8771V63.232H234.368V75.8771H232.292Z" fill="#ED6E57"/>
  <path d="M248.424 63.2331V74.8111C248.424 78.9728 246.454 81.0003 242.568 81.0003C241.183 81.0003 240.065 80.7335 239.107 80.1466C237.989 79.5063 237.403 78.5459 237.35 77.2654H239.426C239.48 77.959 239.852 78.4926 240.598 78.8661C241.183 79.1862 241.876 79.3463 242.674 79.3463C245.177 79.3463 246.454 77.7456 246.454 74.5443V73.6907H246.401C246.082 74.4376 245.549 75.0245 244.751 75.398C244.058 75.7715 243.313 75.9849 242.461 75.9849C240.651 75.9849 239.267 75.3447 238.255 74.0641C237.297 72.8903 236.817 71.3964 236.817 69.5823C236.817 67.8216 237.243 66.3277 238.095 65.1539C239.16 63.66 240.651 62.913 242.674 62.913C244.431 62.913 245.656 63.6066 246.454 64.9938V63.1798H248.424V63.2331ZM242.621 74.1708C243.899 74.1708 244.857 73.6373 245.549 72.6236C246.135 71.7699 246.401 70.6494 246.401 69.3156C246.401 68.0884 246.135 67.0213 245.603 66.221C244.964 65.2606 244.005 64.7804 242.834 64.7804C241.556 64.7804 240.651 65.2606 239.959 66.1676C239.373 66.968 239.054 68.035 239.054 69.3689C239.054 70.7028 239.32 71.7699 239.799 72.6236C240.438 73.6373 241.396 74.1708 242.621 74.1708Z" fill="#ED6E57"/>
  <path d="M262.002 63.2324V75.8775H260.032V73.85H259.979C259.127 75.3973 257.742 76.1443 255.879 76.1443C253.004 76.1443 251.513 74.597 251.513 71.5024V63.179H253.589V71.7158C253.589 72.4628 253.802 73.103 254.282 73.5832C254.761 74.0634 255.347 74.2768 256.145 74.2768C257.37 74.2768 258.275 73.9034 258.967 73.1564C259.606 72.4628 259.872 71.5024 259.872 70.3286V63.179H262.002V63.2324Z" fill="#ED6E57"/>
  <path d="M265.037 75.8778V63.2327H267.007V65.9004H267.06C268.072 63.8729 269.616 62.8592 271.692 62.9659V65.1535C268.657 65.1535 267.113 66.8608 267.113 70.2755V75.8778H265.037Z" fill="#ED6E57"/>
  <path d="M275.419 58.4301V60.9911H273.342V58.4301H275.419ZM273.342 75.8771V63.232H275.419V75.8771H273.342Z" fill="#ED6E57"/>
  <path d="M289.795 74.1703V75.7709C289.423 75.9843 288.943 76.091 288.304 76.091C287.133 76.091 286.547 75.4508 286.547 74.1169C285.429 75.3974 283.938 76.091 282.128 76.091C280.904 76.091 279.892 75.8243 279.2 75.2374C278.401 74.5971 277.975 73.6901 277.975 72.5163C277.975 71.2357 278.401 70.2754 279.306 69.6351C279.892 69.2083 280.904 68.8881 282.235 68.6214C283.246 68.4613 284.205 68.3012 285.216 68.0878C286.068 67.8744 286.494 67.3942 286.494 66.7539C286.494 65.3667 285.536 64.6731 283.672 64.6731C281.649 64.6731 280.584 65.4734 280.531 67.0741H278.454C278.508 65.6335 279.093 64.513 280.105 63.7661C281.01 63.1258 282.235 62.859 283.779 62.859C286.92 62.859 288.517 64.0328 288.517 66.3271V72.8364C288.517 73.3699 288.517 73.7434 288.571 73.9035C288.677 74.1169 288.837 74.2236 289.156 74.2236C289.369 74.3303 289.582 74.277 289.795 74.1703ZM286.441 71.4492V69.315C286.121 69.5817 285.589 69.7418 284.79 69.9019C284.098 70.0086 283.406 70.1153 282.714 70.1686C281.01 70.4354 280.158 71.2357 280.158 72.4629C280.158 73.6901 280.957 74.3303 282.607 74.3303C283.832 74.3303 284.844 74.0102 285.536 73.3166C286.121 72.783 286.441 72.1428 286.441 71.4492Z" fill="#ED6E57"/>
  <path d="M62.0718 44.1317V21.9895H65.9585V44.1317H62.0718Z" fill="#20365D"/>
  <path d="M68.5669 25.3508V21.9895H86.4568V25.3508H79.4286V44.1317H75.5418V25.3508H68.5669Z" fill="#20365D"/>
  <path d="M87.6819 36.7693H91.5687C91.5687 38.3699 92.1011 39.5971 93.2192 40.4508C94.1776 41.1977 95.5087 41.5179 97.1593 41.5179C98.7566 41.5179 99.9279 41.1444 100.78 40.4508C101.472 39.8639 101.845 39.0636 101.845 38.1565C101.845 36.7693 101.259 35.8623 100.034 35.4354C99.8747 35.3821 97.6917 34.7418 93.4322 33.6214C90.1843 32.7143 88.5338 30.8469 88.5338 28.0191C88.5338 25.9383 89.3857 24.2843 91.0895 23.1105C92.5803 22.0434 94.4438 21.5098 96.6268 21.5098C99.0228 21.5098 101.046 22.0967 102.59 23.3239C104.241 24.6044 105.093 26.3651 105.093 28.606H101.206C101.046 25.9916 99.4487 24.7111 96.4671 24.7111C95.4022 24.7111 94.4971 24.9245 93.7517 25.298C92.8465 25.8316 92.3673 26.5785 92.3673 27.5923C92.3673 29.0329 93.2192 29.9399 94.9763 30.4201C96.7333 30.9003 98.8631 31.4338 101.366 32.1274C102.75 32.5543 103.815 33.3012 104.613 34.4217C105.306 35.4354 105.678 36.5559 105.678 37.783C105.678 40.0773 104.773 41.8914 102.91 43.1185C101.312 44.1856 99.289 44.7192 96.893 44.7192C94.2309 44.7192 92.0479 44.0789 90.4506 42.8517C88.6403 41.3578 87.6819 39.3837 87.6819 36.7693Z" fill="#20365D"/>
  <path d="M182.402 44.1317V21.9895H185.331V44.1317H182.402Z" fill="#486A99"/>
  <path d="M208.758 28.6594H205.829C205.51 27.1121 204.818 25.9383 203.7 25.138C202.582 24.3376 201.25 23.9108 199.653 23.9108C197.204 23.9108 195.287 24.8178 193.956 26.6852C192.785 28.2859 192.199 30.3667 192.199 32.8744C192.199 35.5955 192.785 37.783 193.956 39.437C195.287 41.2511 197.204 42.1581 199.706 42.1581C201.57 42.1581 203.114 41.5712 204.232 40.3441C205.297 39.2236 205.936 37.6763 206.042 35.8089H208.971C208.705 38.5834 207.693 40.7709 206.042 42.3182C204.392 43.8655 202.156 44.6658 199.387 44.6658C196.086 44.6658 193.53 43.5454 191.72 41.3045C190.016 39.2236 189.164 36.5025 189.164 33.1412C189.164 29.7798 190.069 27.0587 191.88 24.9245C193.796 22.6303 196.352 21.5098 199.653 21.5098C202.049 21.5098 204.072 22.0967 205.67 23.3239C207.373 24.6044 208.385 26.3651 208.758 28.6594Z" fill="#486A99"/>
  <path d="M217.596 44.1323V24.4977H210.248V22.0434H227.925V24.4977H220.578V44.1323H217.596Z" fill="#486A99"/>
  <path d="M145.664 21.8828C148.34 21.8828 150.509 19.7091 150.509 17.0276C150.509 14.3461 148.34 12.1723 145.664 12.1723C142.988 12.1723 140.819 14.3461 140.819 17.0276C140.819 19.7091 142.988 21.8828 145.664 21.8828Z" fill="#A7C5E5"/>
  <path d="M173.989 44.0245C171.593 46.4255 167.653 46.3721 165.311 43.9711L146.675 25.0835L139.434 32.2331C137.038 34.6341 133.098 34.5807 130.755 32.1797C129.584 30.9526 128.945 29.4053 128.998 27.8046C128.998 26.204 129.637 24.6567 130.809 23.4295L139.754 14.5726C141.138 16.9736 143.747 18.6276 146.729 18.681C149.71 18.681 152.319 17.0803 153.757 14.6794L174.043 35.2743C176.385 37.7286 176.385 41.6235 173.989 44.0245Z" fill="#A7C5E5"/>
  <path d="M172.179 25.3507L151.893 4.75573C150.456 7.15669 147.847 8.75734 144.865 8.75734C141.883 8.75734 139.274 7.10334 137.89 4.64902L133.684 8.81069C138.848 9.23753 142.203 12.2788 143.8 16.1737L144.812 15.1599L163.447 34.0475C165.843 36.4485 169.73 36.5018 172.126 34.1009C174.575 31.6999 174.575 27.805 172.179 25.3507Z" fill="#EB5E61"/>
  <path d="M148.007 3.47483C145.664 1.02051 141.724 0.913801 139.275 3.31477L132.033 10.2509C133.684 12.3851 134.749 14.9461 135.122 17.6672C136.612 18.4142 137.89 19.5346 138.689 20.9752L147.794 12.225C149.018 11.0512 149.657 9.45057 149.71 7.90328C149.764 6.30264 149.178 4.70199 148.007 3.47483Z" fill="#F29D38"/>
  <path d="M140.18 8.81091C140.18 7.95724 140.393 7.21027 140.659 6.4633C139.754 6.62337 138.849 6.67672 137.89 6.67672C137.624 6.67672 137.358 6.62337 137.092 6.62337C136.027 7.58375 134.802 8.43743 133.365 9.02433L114.41 26.8982C111.907 29.2458 111.801 33.1941 114.144 35.6484C116.486 38.1561 120.426 38.2628 122.876 35.9152L144.067 15.9605C141.617 14.5199 140.073 11.7988 140.18 8.81091Z" fill="#F29D38"/>
  <path d="M157.75 26.5779C158.229 24.9772 159.081 23.59 160.306 22.3628C161.424 21.0823 162.808 20.1753 164.405 19.6417C164.885 19.375 165.364 19.1615 165.896 19.0015L149.231 1.87458C146.835 -0.579738 142.948 -0.633094 140.552 1.76787C138.103 4.16884 138.05 8.06374 140.446 10.4647L157.271 27.7517C157.377 27.3782 157.537 26.9513 157.75 26.5779Z" fill="#EB5E61"/>
  <path d="M145.185 25.4574C148.596 25.4574 151.361 22.6864 151.361 19.2682C151.361 15.85 148.596 13.0791 145.185 13.0791C141.774 13.0791 139.009 15.85 139.009 19.2682C139.009 22.6864 141.774 25.4574 145.185 25.4574Z" fill="white"/>
</svg>
